# xmcd
#
# Track frame offsets:
#	150
#	30181
#	68044
#	90308
#	121623
#	154812
#	205515
#	228914
#
# Disc length: 3373 seconds
#
# Revision: 0
# Processed by: cddbd v1.5.2PL0 Copyright (c) Steve Scherf et al.
# Submitted via: EasyCDDAExtractor 16.0.6.1
#
DISCID=4c0d2b08
DTITLE=George Thorogood and The Destroyers - 2008-05-30 - Massey Hall,Toronto - 
DTITLE=BurnBoy - Disc 1
DYEAR=2008
DGENRE=Blues
TTITLE0=Rock Party
TTITLE1=Who Do You Love
TTITLE2=The Fixer
TTITLE3=Night Time
TTITLE4=I Drink Alone
TTITLE5=One Bourbon, One Scotch, One Beer
TTITLE6=Cocaine Blues
TTITLE7=I Got My Eyes on You
EXTD=
EXTT0=
EXTT1=
EXTT2=
EXTT3=
EXTT4=
EXTT5=
EXTT6=
EXTT7=
PLAYORDER=
